<svg height="512" viewBox="0 0 512 512" width="512" xmlns="http://www.w3.org/2000/svg" xmlns:xlink="http://www.w3.org/1999/xlink"><linearGradient id="a" gradientUnits="userSpaceOnUse" x1="59.742" x2="514.024" y1="516.258" y2="61.976" data-name="New Gradient Swatch 1"><stop offset="0" stop-color="#003f8a"/><stop offset=".518" stop-color="#00d7df"/><stop offset="1" stop-color="#006df0"/></linearGradient><linearGradient id="b" x1="-28.258" x2="426.024" xlink:href="#a" y1="428.258" y2="-26.024"/><linearGradient id="c" x1="43.742" x2="498.024" xlink:href="#a" y1="500.258" y2="45.976"/><linearGradient id="d" x1="148.809" x2="603.09" xlink:href="#a" y1="605.324" y2="151.043"/><linearGradient id="e" x1="115.742" x2="570.024" xlink:href="#a" y1="572.258" y2="117.976"/><linearGradient id="f" x1="7.742" x2="462.024" xlink:href="#a" y1="464.258" y2="9.976"/><linearGradient id="g" x1="79.742" x2="534.024" xlink:href="#a" y1="536.258" y2="81.976"/><g><path d="m476 200h-25.97l-162.98-88.28a31.7 31.7 0 0 0 .95-7.72 32 32 0 0 0 -64 0 31.7 31.7 0 0 0 .95 7.72l-162.98 88.28h-25.97a28.031 28.031 0 0 0 -28 28v184a28.031 28.031 0 0 0 28 28h440a28.031 28.031 0 0 0 28-28v-184a28.031 28.031 0 0 0 -28-28zm-220-112a15.994 15.994 0 0 1 14.07 23.61v.01a.01.01 0 0 0 -.01.01 15.994 15.994 0 0 1 -28.12 0 .01.01 0 0 0 -.01-.01v-.01a15.994 15.994 0 0 1 14.07-23.61zm-23.41 37.78a31.922 31.922 0 0 0 46.82 0l137.02 74.22h-320.86zm255.41 286.22a12.01 12.01 0 0 1 -12 12h-440a12.01 12.01 0 0 1 -12-12v-184a12.01 12.01 0 0 1 12-12h440a12.01 12.01 0 0 1 12 12z" fill="url(#a)"/><path d="m104 264a8 8 0 0 0 0-16h-48a8 8 0 0 0 -8 8v128a8 8 0 0 0 8 8h48a8 8 0 0 0 0-16h-40v-112z" fill="url(#b)"/><path d="m248 248h-48a8 8 0 0 0 -8 8v128a8 8 0 0 0 8 8h48a8 8 0 0 0 8-8v-128a8 8 0 0 0 -8-8zm-8 128h-32v-112h32z" fill="url(#c)"/><path d="m444 248h-28a8 8 0 0 0 -8 8v128a8 8 0 0 0 8 8h28a28.032 28.032 0 0 0 28-28v-88a28.032 28.032 0 0 0 -28-28zm12 116a12.013 12.013 0 0 1 -12 12h-20v-112h20a12.013 12.013 0 0 1 12 12z" fill="url(#d)"/><path d="m392 264a8 8 0 0 0 0-16h-48a8 8 0 0 0 -8 8v128a8 8 0 0 0 8 8h48a8 8 0 0 0 0-16h-40v-48h32a8 8 0 0 0 0-16h-32v-48z" fill="url(#e)"/><path d="m176 376h-40v-120a8 8 0 0 0 -16 0v128a8 8 0 0 0 8 8h48a8 8 0 0 0 0-16z" fill="url(#f)"/><path d="m320 264a8 8 0 0 0 0-16h-48a8 8 0 0 0 -8 8v64a8 8 0 0 0 8 8h40v48h-40a8 8 0 0 0 0 16h48a8 8 0 0 0 8-8v-64a8 8 0 0 0 -8-8h-40v-48z" fill="url(#g)"/></g></svg>